<svg width="40" height="40" viewBox="0 0 40 40" fill="none" xmlns="http://www.w3.org/2000/svg">
<path d="M34.1422 5.85781C30.3647 2.08031 25.3422 0 20 0C14.6578 0 9.63531 2.08031 5.85781 5.85781C2.08031 9.63531 0 14.6578 0 20C0 25.3422 2.08039 30.3646 5.85781 34.1422C9.63523 37.9198 14.6578 40 20 40C25.3422 40 30.3647 37.9197 34.1422 34.1422C37.9197 30.3647 40 25.3422 40 20C40 14.6578 37.9196 9.63539 34.1422 5.85781Z" fill="transparent"/>
<g clip-path="url(#clip0_537_241)">
<path d="M20.5715 8V33.1429" stroke="white" stroke-width="2" stroke-linecap="round" stroke-linejoin="round"/>
<path d="M26.2858 12.5713H17.7144C16.6535 12.5713 15.6361 12.9927 14.8859 13.7429C14.1358 14.493 13.7144 15.5104 13.7144 16.5713C13.7144 17.6322 14.1358 18.6496 14.8859 19.3997C15.6361 20.1499 16.6535 20.5713 17.7144 20.5713H23.4286C24.4895 20.5713 25.5069 20.9927 26.2571 21.7429C27.0072 22.493 27.4286 23.5104 27.4286 24.5713C27.4286 25.6322 27.0072 26.6496 26.2571 27.3997C25.5069 28.1499 24.4895 28.5713 23.4286 28.5713H13.7144" stroke="white" stroke-width="2" stroke-linecap="round" stroke-linejoin="round"/>
</g>
<defs>
<clipPath id="clip0_537_241">
<rect width="27.4286" height="27.4286" fill="white" transform="translate(6.85718 6.85693)"/>
</clipPath>
</defs>
</svg>
