<svg width="191" height="40" viewBox="0 0 191 40" fill="none" xmlns="http://www.w3.org/2000/svg">
<path d="M34.1422 5.85781C30.3647 2.08031 25.3422 0 20 0C14.6578 0 9.63531 2.08031 5.85781 5.85781C2.08031 9.63531 0 14.6578 0 20C0 25.3422 2.08039 30.3646 5.85781 34.1422C9.63523 37.9198 14.6578 40 20 40C25.3422 40 30.3647 37.9197 34.1422 34.1422C37.9197 30.3647 40 25.3422 40 20C40 14.6578 37.9196 9.63539 34.1422 5.85781Z" fill="#33CC95"/>
<g clip-path="url(#clip0_537_239)">
<path d="M20.5715 8V33.1429" stroke="white" stroke-width="2" stroke-linecap="round" stroke-linejoin="round"/>
<path d="M26.2858 12.5713H17.7144C16.6535 12.5713 15.6361 12.9927 14.8859 13.7429C14.1358 14.493 13.7144 15.5104 13.7144 16.5713C13.7144 17.6322 14.1358 18.6496 14.8859 19.3997C15.6361 20.1499 16.6535 20.5713 17.7144 20.5713H23.4286C24.4895 20.5713 25.5069 20.9927 26.2571 21.7429C27.0072 22.493 27.4286 23.5104 27.4286 24.5713C27.4286 25.6322 27.0072 26.6496 26.2571 27.3997C25.5069 28.1499 24.4895 28.5713 23.4286 28.5713H13.7144" stroke="white" stroke-width="2" stroke-linecap="round" stroke-linejoin="round"/>
</g>
<path d="M66.668 14.512C68.3 14.512 69.612 15.016 70.604 16.024C71.612 17.016 72.116 18.408 72.116 20.2V28H68.756V20.656C68.756 19.616 68.492 18.824 67.964 18.28C67.436 17.72 66.716 17.44 65.804 17.44C64.892 17.44 64.164 17.72 63.62 18.28C63.092 18.824 62.828 19.616 62.828 20.656V28H59.468V20.656C59.468 19.616 59.204 18.824 58.676 18.28C58.148 17.72 57.428 17.44 56.516 17.44C55.588 17.44 54.852 17.72 54.308 18.28C53.78 18.824 53.516 19.616 53.516 20.656V28H50.156V14.704H53.516V16.312C53.948 15.752 54.5 15.312 55.172 14.992C55.86 14.672 56.612 14.512 57.428 14.512C58.468 14.512 59.396 14.736 60.212 15.184C61.028 15.616 61.66 16.24 62.108 17.056C62.54 16.288 63.164 15.672 63.98 15.208C64.812 14.744 65.708 14.512 66.668 14.512ZM78.6644 16.768C79.0964 16.064 79.6564 15.512 80.3444 15.112C81.0484 14.712 81.8484 14.512 82.7444 14.512V18.04H81.8564C80.8004 18.04 80.0004 18.288 79.4564 18.784C78.9284 19.28 78.6644 20.144 78.6644 21.376V28H75.3044V14.704H78.6644V16.768ZM88.3676 16.624C88.7996 16.016 89.3916 15.512 90.1436 15.112C90.9116 14.696 91.7836 14.488 92.7596 14.488C93.8956 14.488 94.9196 14.768 95.8316 15.328C96.7596 15.888 97.4876 16.688 98.0156 17.728C98.5596 18.752 98.8316 19.944 98.8316 21.304C98.8316 22.664 98.5596 23.872 98.0156 24.928C97.4876 25.968 96.7596 26.776 95.8316 27.352C94.9196 27.928 93.8956 28.216 92.7596 28.216C91.7836 28.216 90.9196 28.016 90.1676 27.616C89.4316 27.216 88.8316 26.712 88.3676 26.104V34.336H85.0076V14.704H88.3676V16.624ZM95.3996 21.304C95.3996 20.504 95.2316 19.816 94.8956 19.24C94.5756 18.648 94.1436 18.2 93.5996 17.896C93.0716 17.592 92.4956 17.44 91.8716 17.44C91.2636 17.44 90.6876 17.6 90.1436 17.92C89.6156 18.224 89.1836 18.672 88.8476 19.264C88.5276 19.856 88.3676 20.552 88.3676 21.352C88.3676 22.152 88.5276 22.848 88.8476 23.44C89.1836 24.032 89.6156 24.488 90.1436 24.808C90.6876 25.112 91.2636 25.264 91.8716 25.264C92.4956 25.264 93.0716 25.104 93.5996 24.784C94.1436 24.464 94.5756 24.008 94.8956 23.416C95.2316 22.824 95.3996 22.12 95.3996 21.304ZM123.504 14.512C125.136 14.512 126.448 15.016 127.44 16.024C128.448 17.016 128.952 18.408 128.952 20.2V28H125.592V20.656C125.592 19.616 125.328 18.824 124.8 18.28C124.272 17.72 123.552 17.44 122.64 17.44C121.728 17.44 121 17.72 120.456 18.28C119.928 18.824 119.664 19.616 119.664 20.656V28H116.304V20.656C116.304 19.616 116.04 18.824 115.512 18.28C114.984 17.72 114.264 17.44 113.352 17.44C112.424 17.44 111.688 17.72 111.144 18.28C110.616 18.824 110.352 19.616 110.352 20.656V28H106.992V14.704H110.352V16.312C110.784 15.752 111.336 15.312 112.008 14.992C112.696 14.672 113.448 14.512 114.264 14.512C115.304 14.512 116.232 14.736 117.048 15.184C117.864 15.616 118.496 16.24 118.944 17.056C119.376 16.288 120 15.672 120.816 15.208C121.648 14.744 122.544 14.512 123.504 14.512ZM138.044 28.216C136.764 28.216 135.612 27.936 134.588 27.376C133.564 26.8 132.756 25.992 132.164 24.952C131.588 23.912 131.3 22.712 131.3 21.352C131.3 19.992 131.596 18.792 132.188 17.752C132.796 16.712 133.62 15.912 134.66 15.352C135.7 14.776 136.86 14.488 138.14 14.488C139.42 14.488 140.58 14.776 141.62 15.352C142.66 15.912 143.476 16.712 144.068 17.752C144.676 18.792 144.98 19.992 144.98 21.352C144.98 22.712 144.668 23.912 144.044 24.952C143.436 25.992 142.604 26.8 141.548 27.376C140.508 27.936 139.34 28.216 138.044 28.216ZM138.044 25.288C138.652 25.288 139.22 25.144 139.748 24.856C140.292 24.552 140.724 24.104 141.044 23.512C141.364 22.92 141.524 22.2 141.524 21.352C141.524 20.088 141.188 19.12 140.516 18.448C139.86 17.76 139.052 17.416 138.092 17.416C137.132 17.416 136.324 17.76 135.668 18.448C135.028 19.12 134.708 20.088 134.708 21.352C134.708 22.616 135.02 23.592 135.644 24.28C136.284 24.952 137.084 25.288 138.044 25.288ZM154.813 14.512C156.397 14.512 157.677 15.016 158.653 16.024C159.629 17.016 160.117 18.408 160.117 20.2V28H156.757V20.656C156.757 19.6 156.493 18.792 155.965 18.232C155.437 17.656 154.717 17.368 153.805 17.368C152.877 17.368 152.141 17.656 151.597 18.232C151.069 18.792 150.805 19.6 150.805 20.656V28H147.445V14.704H150.805V16.36C151.253 15.784 151.821 15.336 152.509 15.016C153.213 14.68 153.981 14.512 154.813 14.512ZM175.672 21.064C175.672 21.544 175.64 21.976 175.576 22.36H165.856C165.936 23.32 166.272 24.072 166.864 24.616C167.456 25.16 168.184 25.432 169.048 25.432C170.296 25.432 171.184 24.896 171.712 23.824H175.336C174.952 25.104 174.216 26.16 173.128 26.992C172.04 27.808 170.704 28.216 169.12 28.216C167.84 28.216 166.688 27.936 165.664 27.376C164.656 26.8 163.864 25.992 163.288 24.952C162.728 23.912 162.448 22.712 162.448 21.352C162.448 19.976 162.728 18.768 163.288 17.728C163.848 16.688 164.632 15.888 165.64 15.328C166.648 14.768 167.808 14.488 169.12 14.488C170.384 14.488 171.512 14.76 172.504 15.304C173.512 15.848 174.288 16.624 174.832 17.632C175.392 18.624 175.672 19.768 175.672 21.064ZM172.192 20.104C172.176 19.24 171.864 18.552 171.256 18.04C170.648 17.512 169.904 17.248 169.024 17.248C168.192 17.248 167.488 17.504 166.912 18.016C166.352 18.512 166.008 19.208 165.88 20.104H172.192ZM190.845 14.704L182.613 34.288H179.037L181.917 27.664L176.589 14.704H180.357L183.789 23.992L187.269 14.704H190.845Z" fill="white"/>
<defs>
<clipPath id="clip0_537_239">
<rect width="27.4286" height="27.4286" fill="white" transform="translate(6.85718 6.85693)"/>
</clipPath>
</defs>
</svg>
